<svg width="315" height="58" viewBox="0 0 315 58" fill="none" xmlns="http://www.w3.org/2000/svg">
<path d="M94.0341 25.8182H86.0227C85.9659 25.1553 85.8144 24.554 85.5682 24.0142C85.3314 23.4744 85 23.0104 84.5739 22.6222C84.1572 22.2244 83.6506 21.9214 83.054 21.7131C82.4574 21.4953 81.7803 21.3864 81.0227 21.3864C79.697 21.3864 78.5748 21.7083 77.6562 22.3523C76.7472 22.9962 76.0559 23.9195 75.5824 25.1222C75.1184 26.3248 74.8864 27.7689 74.8864 29.4545C74.8864 31.2348 75.1231 32.7263 75.5966 33.929C76.0795 35.1222 76.7756 36.0218 77.6847 36.6278C78.5938 37.2244 79.6875 37.5227 80.9659 37.5227C81.6951 37.5227 82.3485 37.4328 82.9261 37.2528C83.5038 37.0634 84.0057 36.7936 84.4318 36.4432C84.858 36.0928 85.2036 35.6714 85.4688 35.179C85.7434 34.6771 85.928 34.1136 86.0227 33.4886L94.0341 33.5455C93.9394 34.7765 93.5938 36.0312 92.9972 37.3097C92.4006 38.5786 91.553 39.7528 90.4545 40.8324C89.3655 41.9025 88.0161 42.7642 86.4062 43.4176C84.7964 44.071 82.9261 44.3977 80.7955 44.3977C78.125 44.3977 75.7292 43.8248 73.608 42.679C71.4962 41.5331 69.8248 39.8475 68.5938 37.6222C67.3722 35.3968 66.7614 32.6742 66.7614 29.4545C66.7614 26.2159 67.3864 23.4886 68.6364 21.2727C69.8864 19.0473 71.572 17.3665 73.6932 16.2301C75.8144 15.0843 78.1818 14.5114 80.7955 14.5114C82.6326 14.5114 84.3229 14.7623 85.8665 15.2642C87.41 15.7661 88.7642 16.5 89.929 17.4659C91.0938 18.4223 92.0313 19.6013 92.7415 21.0028C93.4517 22.4044 93.8826 24.0095 94.0341 25.8182ZM97.6172 44V14.9091H105.515V26.2727H115.969V14.9091H123.867V44H115.969V32.6364H105.515V44H97.6172ZM135.174 44H126.651L136.254 14.9091H147.049L156.651 44H148.129L141.765 22.9205H141.538L135.174 44ZM133.583 32.5227H149.606V38.4318H133.583V32.5227ZM159.453 14.9091H169.283L176.044 31.3864H176.385L183.146 14.9091H192.976V44H185.249V27.1818H185.021L178.544 43.7727H173.885L167.408 27.0682H167.18V44H159.453V14.9091Z" fill="#1E9F88"/>
<path d="M204.276 44H195.753L205.355 14.9091H216.151L225.753 44H217.23L210.866 22.9205H210.639L204.276 44ZM202.685 32.5227H218.707V38.4318H202.685V32.5227ZM239.748 44H228.555V14.9091H239.634C242.627 14.9091 245.212 15.4915 247.39 16.6562C249.577 17.8116 251.263 19.4782 252.447 21.6562C253.64 23.8248 254.237 26.4242 254.237 29.4545C254.237 32.4848 253.645 35.089 252.461 37.267C251.277 39.4356 249.601 41.1023 247.433 42.267C245.264 43.4223 242.702 44 239.748 44ZM236.452 37.2955H239.464C240.903 37.2955 242.129 37.0634 243.143 36.5994C244.165 36.1354 244.942 35.3352 245.472 34.1989C246.012 33.0625 246.282 31.4811 246.282 29.4545C246.282 27.428 246.007 25.8466 245.458 24.7102C244.918 23.5739 244.123 22.7737 243.072 22.3097C242.03 21.8456 240.752 21.6136 239.237 21.6136H236.452V37.2955ZM286.072 29.4545C286.072 32.6932 285.443 35.4252 284.183 37.6506C282.924 39.8665 281.224 41.5473 279.084 42.6932C276.944 43.8295 274.557 44.3977 271.925 44.3977C269.273 44.3977 266.877 43.8248 264.737 42.679C262.607 41.5237 260.911 39.8381 259.652 37.6222C258.402 35.3968 257.777 32.6742 257.777 29.4545C257.777 26.2159 258.402 23.4886 259.652 21.2727C260.911 19.0473 262.607 17.3665 264.737 16.2301C266.877 15.0843 269.273 14.5114 271.925 14.5114C274.557 14.5114 276.944 15.0843 279.084 16.2301C281.224 17.3665 282.924 19.0473 284.183 21.2727C285.443 23.4886 286.072 26.2159 286.072 29.4545ZM277.947 29.4545C277.947 27.7121 277.715 26.2443 277.251 25.0511C276.797 23.8485 276.12 22.9394 275.22 22.3239C274.33 21.6989 273.232 21.3864 271.925 21.3864C270.618 21.3864 269.515 21.6989 268.615 22.3239C267.725 22.9394 267.048 23.8485 266.584 25.0511C266.129 26.2443 265.902 27.7121 265.902 29.4545C265.902 31.197 266.129 32.6695 266.584 33.8722C267.048 35.0653 267.725 35.9744 268.615 36.5994C269.515 37.215 270.618 37.5227 271.925 37.5227C273.232 37.5227 274.33 37.215 275.22 36.5994C276.12 35.9744 276.797 35.0653 277.251 33.8722C277.715 32.6695 277.947 31.197 277.947 29.4545ZM305.408 24C305.333 23.053 304.978 22.3144 304.343 21.7841C303.718 21.2538 302.766 20.9886 301.488 20.9886C300.674 20.9886 300.006 21.0881 299.485 21.2869C298.974 21.4763 298.595 21.7367 298.349 22.0682C298.103 22.3996 297.975 22.7784 297.965 23.2045C297.946 23.5549 298.008 23.8722 298.15 24.1562C298.301 24.4309 298.538 24.6818 298.86 24.9091C299.182 25.1269 299.594 25.3258 300.096 25.5057C300.598 25.6856 301.194 25.8466 301.886 25.9886L304.272 26.5C305.882 26.8409 307.26 27.2907 308.406 27.8494C309.551 28.4081 310.489 29.0663 311.218 29.8239C311.947 30.572 312.482 31.4148 312.823 32.3523C313.174 33.2898 313.353 34.3125 313.363 35.4205C313.353 37.3333 312.875 38.9527 311.928 40.2784C310.981 41.6042 309.627 42.6127 307.866 43.304C306.114 43.9953 304.007 44.3409 301.545 44.3409C299.016 44.3409 296.81 43.9669 294.925 43.2188C293.05 42.4706 291.592 41.3201 290.55 39.767C289.518 38.2045 288.997 36.2064 288.988 33.7727H296.488C296.535 34.6629 296.758 35.411 297.156 36.017C297.553 36.6231 298.112 37.0824 298.832 37.3949C299.561 37.7074 300.427 37.8636 301.431 37.8636C302.274 37.8636 302.979 37.7595 303.548 37.5511C304.116 37.3428 304.547 37.054 304.84 36.6847C305.134 36.3153 305.285 35.8939 305.295 35.4205C305.285 34.9754 305.138 34.5871 304.854 34.2557C304.58 33.9148 304.125 33.6117 303.491 33.3466C302.856 33.072 301.999 32.8163 300.92 32.5795L298.022 31.9545C295.446 31.3958 293.415 30.4631 291.928 29.1562C290.451 27.84 289.717 26.0455 289.727 23.7727C289.717 21.9261 290.21 20.3116 291.204 18.929C292.208 17.5369 293.595 16.4527 295.366 15.6761C297.146 14.8996 299.187 14.5114 301.488 14.5114C303.836 14.5114 305.868 14.9044 307.582 15.6903C309.296 16.4763 310.617 17.5843 311.545 19.0142C312.482 20.4347 312.956 22.0966 312.965 24H305.408Z" fill="#5E60CE"/>
<rect x="1" y="1" width="56" height="56" stroke="#1E9F88"/>
<path d="M37.7499 50C37.7499 50.4641 37.5655 50.9092 37.2374 51.2374C36.9092 51.5656 36.464 51.75 35.9999 51.75H21.9999C21.5358 51.75 21.0907 51.5656 20.7625 51.2374C20.4343 50.9092 20.2499 50.4641 20.2499 50C20.2499 49.5359 20.4343 49.0908 20.7625 48.7626C21.0907 48.4344 21.5358 48.25 21.9999 48.25H35.9999C36.464 48.25 36.9092 48.4344 37.2374 48.7626C37.5655 49.0908 37.7499 49.5359 37.7499 50ZM49.5296 43C49.226 43.5349 48.7851 43.9791 48.2526 44.2867C47.72 44.5943 47.1149 44.7543 46.4999 44.75H11.4999C10.8847 44.7492 10.2805 44.5862 9.74829 44.2774C9.2161 43.9687 8.7747 43.5251 8.46859 42.9914C8.16247 42.4577 8.00245 41.8527 8.00466 41.2374C8.00687 40.6222 8.17123 40.0184 8.48117 39.4869C9.69523 37.3956 11.4999 31.4806 11.4999 23.75C11.4999 19.1087 13.3437 14.6575 16.6255 11.3756C19.9074 8.09374 24.3586 6.25 28.9999 6.25C33.6412 6.25 38.0924 8.09374 41.3743 11.3756C44.6562 14.6575 46.4999 19.1087 46.4999 23.75C46.4999 31.4784 48.3068 37.3956 49.5209 39.4869C49.8339 40.0191 49.9995 40.6251 50.0006 41.2425C50.0018 41.86 49.8385 42.4666 49.5274 43H49.5296ZM46.4999 41.25C44.809 38.3472 42.9999 31.6359 42.9999 23.75C42.9999 20.037 41.5249 16.476 38.8994 13.8505C36.2739 11.225 32.7129 9.75 28.9999 9.75C25.2869 9.75 21.7259 11.225 19.1004 13.8505C16.4749 16.476 14.9999 20.037 14.9999 23.75C14.9999 31.6381 13.1887 38.3494 11.4999 41.25H46.4999Z" fill="#1E9F88"/>
</svg>
